<svg id="cog-wheels-svg-1" version="1.1" xmlns="http://www.w3.org/2000/svg" x="0px" y="0px" viewBox="0 0 512 512" xml:space="preserve"><g><g><rect x="304.489" y="336.815" width="15.642" height="15.642"></rect></g></g><g><g><rect x="336.815" y="336.815" width="16.684" height="15.642"></rect></g></g><g><g><rect x="367.055" y="336.815" width="16.684" height="15.642"></rect></g></g><g><g><path d="M356.196,84.228l-56.215-56.216L267.45,60.084c-11.464-6.607-23.319-11.488-35.955-14.803V0h-79.25v45.367
			c-12.286,3.397-24.067,8.319-35.162,14.691L85.135,27.957l-56.17,56.26l32.127,32.326c-6.226,10.944-11.225,23.096-14.686,35.702
			H0v79.251h46.334c3.248,12.236,8.117,23.908,14.764,35.396l-32.086,32.045l56.261,56.238l32.09-32.1
			c13.014,7.47,26.964,12.925,41.554,16.241l3.466-15.253c-14.889-3.384-29.041-9.258-42.061-17.459l-5.284-3.328l-29.77,29.778
			l-34.126-34.112l29.765-29.728l-3.329-5.287c-8.665-13.756-14.209-27.077-17.45-41.919l-1.343-6.152H15.642v-47.967h43.055
			l1.408-6.047c3.54-15.203,9.57-29.84,17.436-42.33l3.318-5.266L51.043,84.241l34.074-34.13l29.617,29.759l5.296-3.336
			c12.752-8.031,27.21-14.074,41.81-17.473l6.047-1.408V15.642h47.967v42.102l6.152,1.343c15.175,3.312,29.057,9.02,42.441,17.449
			l5.244,3.302l30.212-29.784l34.174,34.174l-29.768,29.768l3.328,5.283c8.206,13.029,14.082,27.181,17.463,42.061l15.253-3.466
			c-3.315-14.582-8.771-28.533-16.246-41.554L356.196,84.228z"></path></g></g><g><g><rect x="183.528" y="183.528" width="16.684" height="15.642"></rect></g></g><g><g><rect x="215.853" y="183.528" width="16.684" height="15.642"></rect></g></g><g><g><rect x="152.244" y="183.528" width="16.684" height="15.642"></rect></g></g><g><g><path d="M262.401,104.371c-19.704-15.792-44.491-24.487-69.793-24.487c-61.581,0-111.681,50.1-111.681,111.682
			c0,25.308,8.702,50.1,24.501,69.807c15.557,19.406,37.384,33.219,61.46,38.895l3.588-15.224
			c-20.694-4.879-39.461-16.759-52.844-33.454c-13.78-17.188-21.063-37.944-21.063-60.024c0-52.957,43.082-96.04,96.039-96.04
			c22.073,0,42.824,7.28,60.01,21.051c16.692,13.377,28.575,32.135,33.461,52.82l15.222-3.595
			C295.618,141.736,281.802,119.92,262.401,104.371z"></path></g></g><g><g><path d="M192.683,104.004c-48.365,0-87.636,39.196-87.636,87.561c0,48.365,38.856,87.714,87.866,87.714v-15.642
			c-39.625,0-72.224-32.255-72.224-71.996c0-39.74,32.178-71.996,71.919-71.996c39.74,0,72.072,32.599,72.072,72.224h15.642
			C280.321,142.859,241.049,104.004,192.683,104.004z"></path></g></g><g><g><path d="M344.403,247.658c-52.77,0-95.702,42.932-95.702,95.702c0,52.77,42.932,95.702,95.702,95.702
			c52.77,0,95.702-42.932,95.702-95.702C440.106,290.59,397.174,247.658,344.403,247.658z M344.403,423.422
			c-44.146,0-80.061-35.915-80.061-80.061c0-44.146,35.915-80.061,80.061-80.061c44.146,0,80.061,35.915,80.061,80.061
			C424.465,387.506,388.549,423.422,344.403,423.422z"></path></g></g><g><g><path d="M344.403,271.626c-39.555,0-71.735,32.18-71.735,71.734c0,39.554,32.18,71.734,71.735,71.734
			c39.555,0,71.735-32.18,71.735-71.734C416.138,303.806,383.958,271.626,344.403,271.626z M344.403,399.454
			c-30.93,0-56.094-25.163-56.094-56.093c0-30.93,25.164-56.093,56.094-56.093c30.93,0,56.094,25.163,56.094,56.093
			S375.334,399.454,344.403,399.454z"></path></g></g><g><g><path d="M465.603,304.489c-2.106-6.497-4.601-12.676-7.375-18.275l32.792-33.029l-56.152-56.292l-33.534,32.7
			c-6.069-3.081-12.235-5.582-18.636-7.557v-45.809h-78.208v45.948c-6.167,2.032-12.103,4.485-17.749,7.331l-32.758-32.793
			l-56.2,56.221l32.797,33.262c-2.773,5.596-5.268,11.78-7.378,18.292h-46.974v78.208h46.858c1.909,6.141,4.32,11.986,7.451,18.071
			l-32.762,32.877l56.242,56.31l32.723-32.766c5.67,2.865,11.607,5.325,17.75,7.355V512h78.208v-47.311
			c6.435-1.975,12.587-4.454,18.597-7.49l33.149,32.761l56.402-56.172l-32.67-32.997c3.195-6.177,5.634-12.029,7.538-18.093H512
			v-78.208H465.603z M496.358,367.056h-42.645l-1.495,5.9c-2.201,8.693-5.339,16.273-10.49,25.349l-2.925,5.152l29.954,30.253
			l-34.357,34.216l-30.426-30.069l-5.147,2.922c-8.347,4.737-16.568,8.042-25.871,10.399l-5.9,1.493v43.688H320.13v-43.524
			l-5.702-1.605c-8.946-2.518-17.443-6.044-25.259-10.48l-5.183-2.942l-29.972,30.012l-34.148-34.188l30.053-30.158l-2.934-5.17
			c-4.967-8.747-8.173-16.563-10.398-25.348l-1.494-5.901H191.87V320.13h43.06l1.605-5.702c2.697-9.581,6.308-18.496,10.442-25.78
			l2.919-5.142l-30.071-30.498l34.155-34.167l30.009,30.042l5.183-2.942c7.75-4.398,16.247-7.915,25.259-10.451l5.702-1.605V191.87
			h46.925v42.18l5.9,1.495c9.183,2.325,17.403,5.648,25.871,10.455l5.112,2.902l30.777-30.012l34.237,34.322l-30.06,30.278
			l2.929,5.16c4.147,7.306,7.76,16.22,10.452,25.78l1.605,5.702h42.479V367.056z"></path></g></g></svg>